<svg width="240" height="28" viewBox="0 0 240 28" fill="none" xmlns="http://www.w3.org/2000/svg">
<g clip-path="url(#clip0_0_752)">
<g filter="url(#filter0_ddii_0_752)">
<path d="M220.667 2.5856C222.605 2.00982 224.704 1.79735 226.7 2.22834C225.898 2.22365 225.096 2.25581 224.296 2.2786C224.568 3.50254 225.662 4.29282 226.299 5.33176C227.05 6.55972 228.148 7.5611 228.841 8.82257C230.434 11.6317 232.223 14.3672 233.359 17.3828C233.617 18.102 233.651 18.8755 233.916 19.5947C234.012 19.9352 234.44 19.9794 234.722 20.1349C234.787 20.2931 234.851 20.4466 234.92 20.6082C233.798 22.1726 232.32 23.5273 230.576 24.467C230.135 23.4683 229.803 22.4253 229.268 21.4661C227.722 18.6422 226.014 15.8941 224.624 12.9944C223.997 11.5875 223.645 10.0921 223.287 8.6101C222.955 7.22195 222.24 5.96248 221.613 4.68224C221.262 3.99453 221.219 3.17679 220.667 2.5856Z" fill="#007AFF" fill-opacity="0.9"/>
<path d="M224.293 2.28177C225.092 2.25898 225.895 2.22747 226.697 2.23149C229.47 2.54921 232.148 3.8757 233.946 5.90733C237.704 9.84793 238.215 16.2739 234.917 20.612C234.849 20.4498 234.784 20.2963 234.719 20.1388C234.436 19.9833 234.008 19.939 233.913 19.5985C233.648 18.8793 233.614 18.1058 233.356 17.3866C232.22 14.371 230.431 11.6356 228.838 8.82575C228.145 7.56427 227.047 6.56354 226.295 5.33558C225.658 4.29664 224.565 3.50639 224.293 2.28245V2.28177Z" fill="#007AFF"/>
<path d="M218.295 3.72951C218.881 3.08805 219.866 2.91311 220.668 2.59138C221.22 3.18256 221.263 4.0003 221.614 4.68801C222.241 5.96892 222.956 7.2284 223.287 8.61588C223.646 10.0985 223.998 11.5933 224.625 13.0002C226.014 15.8998 227.723 18.648 229.269 21.4726C229.804 22.4311 230.136 23.474 230.577 24.4728C228.231 25.8964 225.29 26.2812 222.581 25.808C223.326 25.7242 224.067 25.6189 224.811 25.5285C224.606 24.141 223.963 22.8641 223.346 21.6046C222.978 20.8707 222.461 20.1856 222.323 19.3672C221.993 17.666 220.93 16.2135 220.367 14.5881C220.048 13.6544 220.084 12.6409 219.674 11.73C219.484 11.2467 219.161 10.7735 219.226 10.2373C219.367 8.86657 218.583 7.62588 217.983 6.43546C217.411 5.56945 218.048 4.59552 218.295 3.72951Z" fill="#007AFF" fill-opacity="0.8"/>
<path d="M215.806 5.48727C216.539 4.78951 217.325 4.10983 218.297 3.7271C218.049 4.59378 217.412 5.56703 217.985 6.4337C218.584 7.62345 219.368 8.86415 219.228 10.2355C219.164 10.7718 219.486 11.245 219.676 11.7283C220.085 12.6385 220.05 13.6527 220.369 14.5857C220.932 16.2111 221.995 17.6643 222.325 19.3655C222.463 20.1832 222.979 20.8689 223.347 21.6029C223.964 22.8623 224.608 24.1386 224.813 25.5267C224.069 25.6172 223.327 25.7224 222.583 25.8062C221.324 25.7559 220.11 25.3142 219.047 24.6962C219.375 24.6855 219.7 24.658 220.028 24.6373C219.923 23.1398 218.898 21.9333 218.475 20.5284C218.06 19.2207 217.334 18.0283 216.873 16.7373C216.302 15.1749 215.826 13.5789 215.467 11.9615C215.266 11.0285 214.805 10.1471 214.774 9.18387C214.737 8.24815 214.941 7.3292 215.153 6.42298C215.24 6.04494 215.534 5.75672 215.805 5.48727H215.806Z" fill="#007AFF" fill-opacity="0.7"/>
<path d="M214.423 7.13076C214.621 6.85729 214.891 6.64077 215.146 6.42025C214.935 7.32647 214.73 8.24544 214.768 9.18115C214.799 10.1444 215.26 11.0251 215.461 11.9588C215.82 13.5755 216.296 15.1715 216.866 16.7339C217.328 18.0249 218.054 19.2173 218.468 20.525C218.892 21.9299 219.916 23.1371 220.021 24.6338C219.693 24.6553 219.368 24.6828 219.041 24.6928C218.241 24.4428 217.581 23.9153 216.931 23.4314C213.939 21.1269 212.132 17.4866 212.289 13.8349C212.233 11.4541 213.053 9.11212 214.423 7.13076Z" fill="#007AFF" fill-opacity="0.6"/>
</g>
<path d="M15.1644 13.0935C15.1856 13.4318 15.1962 13.8992 15.1962 14.4966C15.1962 15.0636 15.1856 15.5069 15.1644 15.825C15.0398 18.0549 14.4037 19.7318 13.2578 20.8557C12.1004 21.9905 10.6205 22.5583 8.81802 22.5583C8.04671 22.5583 7.343 22.4486 6.70689 22.2293C6.0716 22.0107 5.53485 21.712 5.09666 21.334H4.62834V27.8425H0.000457764V6.76313H4.3001V8.06203H4.69023C5.12842 7.54481 5.69123 7.14113 6.37866 6.85257C7.06689 6.5539 7.86915 6.40458 8.78625 6.40458C10.6726 6.40458 12.1843 6.95213 13.3205 8.04725C14.4664 9.15169 15.0814 10.834 15.1653 13.0927L15.1644 13.0935ZM4.5811 15.4369C4.63322 16.532 4.88897 17.3425 5.34752 17.8706C5.80607 18.3979 6.54562 18.6616 7.56698 18.6616C8.55739 18.6616 9.28635 18.3878 9.75549 17.8402C10.2246 17.2927 10.4804 16.4916 10.5219 15.4369C10.5423 15.1484 10.5529 14.7952 10.5529 14.3768C10.5529 14.019 10.5423 13.7204 10.5219 13.4816C10.4804 12.4261 10.2246 11.6351 9.75549 11.1078C9.28635 10.5704 8.55739 10.3013 7.56698 10.3013C6.52445 10.3013 5.77431 10.5704 5.31575 11.1078C4.8572 11.6351 4.61205 12.4261 4.5811 13.4816L4.55014 14.4966L4.5811 15.4369ZM27.5616 6.70325H28.3745V10.9585H27.3116C25.9253 10.9585 24.873 11.2618 24.1539 11.8692C23.4347 12.486 23.0747 13.3322 23.0747 14.4071V22.1701H18.4321V6.76392H22.6992V8.68968H23.2001C24.2003 7.3659 25.6541 6.70403 27.5616 6.70403V6.70325ZM30.4693 15.7955C30.4482 15.4665 30.4384 14.964 30.4384 14.2874C30.4384 13.7896 30.4482 13.4217 30.4693 13.1829C30.5736 11.0829 31.2879 9.42079 32.6114 8.19657C33.9455 6.98246 35.7431 6.37503 38.0049 6.37503C40.3082 6.37503 42.1107 6.98713 43.4139 8.21136C44.7064 9.44569 45.3523 11.2618 45.3523 13.6605C45.3523 14.516 45.3417 15.2083 45.3214 15.7356H35.0654L35.0972 16.1836C35.1591 17.099 35.4458 17.8006 35.9565 18.2882C36.4672 18.7759 37.2124 19.0201 38.1922 19.0201C38.922 19.0201 39.4946 18.8903 39.9116 18.632C40.3392 18.373 40.5941 18.0643 40.678 17.7065H45.1959C45.0705 18.5021 44.7374 19.2636 44.1949 19.99C43.6639 20.7266 42.8926 21.3387 41.8818 21.8264C40.8711 22.314 39.6412 22.5583 38.1922 22.5583C35.8058 22.5583 33.9455 21.9609 32.6114 20.7662C31.2879 19.5825 30.5736 17.925 30.4693 15.7955ZM35.0654 12.6455H40.8344V12.556C40.8344 11.6997 40.5892 11.0331 40.0997 10.5556C39.6094 10.0679 38.922 9.82369 38.0359 9.82369C36.1805 9.82369 35.1909 10.764 35.0654 12.6455ZM52.277 17.5867C52.3503 18.1241 52.6159 18.527 53.0744 18.7961C53.533 19.0645 54.1479 19.199 54.9192 19.199C55.6702 19.199 56.2273 19.0699 56.5921 18.8109C56.9464 18.5519 57.124 18.1941 57.124 17.736C57.124 17.3176 56.988 17.0096 56.7176 16.8105C56.4569 16.6114 56.0342 16.4721 55.4511 16.392L52.7307 16.0941C49.5412 15.6563 47.9472 14.138 47.9472 11.5402C47.9472 10.5354 48.2234 9.63935 48.7756 8.85379C49.3384 8.06746 50.1301 7.46003 51.1514 7.03225C52.163 6.61381 53.3245 6.40536 54.6382 6.40536C56.5873 6.40536 58.1608 6.82768 59.3589 7.6739C60.5472 8.53024 61.2143 9.71946 61.3601 11.2416H56.8731C56.7689 10.7539 56.5294 10.3907 56.1548 10.1519C55.7687 9.91313 55.2214 9.79414 54.5128 9.79414C53.8457 9.79414 53.335 9.91858 52.9807 10.1667C52.6264 10.4156 52.4497 10.7539 52.4497 11.1825C52.4497 11.5807 52.5898 11.8739 52.8716 12.0629C53.1526 12.2519 53.5541 12.3764 54.0754 12.4362L56.8112 12.7645C58.3327 12.9636 59.521 13.4512 60.3754 14.2275C61.2192 14.9943 61.6419 16.0537 61.6419 17.4078C61.6419 19.01 61.0164 20.2685 59.7654 21.1847C58.5045 22.1001 56.8788 22.5583 54.8882 22.5583C52.9392 22.5583 51.2923 22.1351 49.9476 21.2889C48.6135 20.4435 47.8845 19.2091 47.7591 17.5867H52.277ZM64.0805 15.7955C64.0601 15.4665 64.0495 14.964 64.0495 14.2874C64.0495 13.7896 64.0601 13.4217 64.0805 13.1829C64.1847 11.0829 64.899 9.42079 66.2225 8.19657C67.5567 6.98246 69.3542 6.37503 71.616 6.37503C73.9194 6.37503 75.7218 6.98713 77.025 8.21136C78.3176 9.44569 78.9635 11.2618 78.9635 13.6605C78.9635 14.516 78.9529 15.2083 78.9325 15.7356H68.692L68.7238 16.1836C68.7865 17.099 69.0732 17.8006 69.5831 18.2882C70.084 18.7759 70.8235 19.0201 71.8034 19.0201C72.5331 19.0201 73.1114 18.8903 73.539 18.632C73.9552 18.373 74.2061 18.0643 74.2891 17.7065H78.8071C78.6816 18.5021 78.3534 19.2636 77.8224 19.99C77.2799 20.7266 76.5037 21.3387 75.4929 21.8264C74.492 22.314 73.2621 22.5583 71.8034 22.5583C69.4169 22.5583 67.5567 21.9609 66.2225 20.7662C64.899 19.5825 64.1847 17.925 64.0805 15.7955ZM68.692 12.6455H74.4455V12.556C74.4455 11.6997 74.2061 11.0331 73.7264 10.5556C73.236 10.0679 72.5437 9.82369 71.647 9.82369C69.8022 9.82369 68.8175 10.764 68.692 12.6455ZM91.2206 6.40536C92.9611 6.40536 94.3473 6.8829 95.3785 7.83801C96.3998 8.80324 96.9105 10.2966 96.9105 12.3165V22.1701H92.268V13.242C92.268 12.2869 92.0277 11.5854 91.5488 11.1374C91.0797 10.6792 90.4281 10.4506 89.5949 10.4506C88.7812 10.4506 88.1198 10.6847 87.6091 11.1521C87.1091 11.6102 86.859 12.3165 86.859 13.2723V22.1701H82.2157V6.76392H86.5145V8.15225H86.9527C87.4006 7.63425 87.9895 7.21659 88.7193 6.89848C89.4482 6.56948 90.2823 6.40536 91.2206 6.40536ZM99.0998 6.76313H101.523V2.83691H106.165V6.76313H109.37V10.3915H106.165V16.4224C106.165 17.1784 106.337 17.6909 106.682 17.96C107.026 18.2284 107.552 18.3629 108.26 18.3629H109.37V22.2293H107.416C105.426 22.2293 103.946 21.8162 102.977 20.9902C102.008 20.1642 101.523 18.7814 101.523 16.84V10.3907H99.099L99.0998 6.76313ZM116.015 17.5875C116.098 18.1249 116.369 18.5278 116.828 18.7961C117.286 19.0653 117.896 19.199 118.657 19.199C119.407 19.199 119.965 19.0699 120.33 18.8109C120.695 18.5527 120.877 18.1941 120.877 17.736C120.877 17.3184 120.741 17.0096 120.47 16.8105C120.2 16.6114 119.772 16.4721 119.188 16.3928L116.484 16.0941C113.284 15.6563 111.684 14.1388 111.684 11.541C111.684 10.5354 111.966 9.64013 112.529 8.85379C113.081 8.06746 113.868 7.46081 114.889 7.03225C115.911 6.61458 117.073 6.40536 118.375 6.40536C120.335 6.40536 121.909 6.82846 123.097 7.67469C124.295 8.53024 124.968 9.71947 125.113 11.2424H120.627C120.522 10.7547 120.278 10.3915 119.892 10.1527C119.507 9.91391 118.959 9.79414 118.251 9.79414C117.594 9.79414 117.088 9.91859 116.734 10.1675C116.38 10.4164 116.202 10.7547 116.202 11.1825C116.202 11.5807 116.343 11.8739 116.625 12.0637C116.906 12.2527 117.302 12.3771 117.813 12.4362L120.564 12.7653C122.075 12.9644 123.258 13.452 124.112 14.2282C124.968 14.9944 125.394 16.0545 125.394 17.4078C125.394 19.01 124.764 20.2692 123.503 21.1847C122.252 22.1001 120.627 22.5583 118.625 22.5583C116.676 22.5583 115.03 22.1351 113.686 21.2897C112.351 20.4435 111.622 19.2091 111.497 17.5867L116.015 17.5875ZM132.992 6.76313V22.1694H128.349V6.76313H132.992ZM128.287 0.000349045H133.055V4.37457H128.287V0.000349045ZM155.27 6.40536C156.906 6.40536 158.255 6.8829 159.318 7.83801C160.381 8.80324 160.913 10.2662 160.913 12.227V22.1701H156.27V13.0927C156.27 12.1772 156.04 11.5107 155.582 11.0923C155.123 10.6645 154.519 10.4506 153.769 10.4506C152.997 10.4506 152.377 10.6746 151.908 11.1226C151.429 11.5605 151.189 12.2169 151.189 13.0927V22.1701H146.546V13.0927C146.546 12.1975 146.322 11.5356 145.874 11.1078C145.426 10.6699 144.816 10.4506 144.044 10.4506C143.305 10.4506 142.69 10.6792 142.2 11.1374C141.71 11.5854 141.465 12.2371 141.465 13.0927V22.1701H136.822V6.76392H141.121V8.1818H141.559C142.059 7.60469 142.674 7.16681 143.403 6.86814C144.123 6.55936 144.899 6.40536 145.733 6.40536C146.734 6.40536 147.593 6.58423 148.312 6.94279C149.042 7.29123 149.615 7.77346 150.033 8.39101H150.47C150.991 7.77346 151.653 7.29123 152.456 6.94279C153.268 6.58423 154.206 6.40536 155.269 6.40536H155.27ZM179.72 13.0927C179.741 13.431 179.751 13.8992 179.751 14.4966C179.751 15.0636 179.741 15.5061 179.72 15.825C179.595 18.0541 178.96 19.7318 177.813 20.8557C176.656 21.9905 175.176 22.5575 173.373 22.5575C172.602 22.5575 171.898 22.4486 171.263 22.2293C170.627 22.0107 170.09 21.712 169.653 21.334H169.199V27.8425H164.556V6.76313H168.855V8.06203H169.262C169.689 7.54403 170.246 7.14113 170.934 6.85257C171.622 6.5539 172.425 6.40458 173.342 6.40458C175.228 6.40458 176.745 6.95213 177.891 8.04725C179.027 9.15169 179.636 10.834 179.72 13.0927ZM169.136 15.4369C169.199 16.532 169.455 17.3425 169.903 17.8698C170.361 18.3979 171.101 18.6616 172.122 18.6616C173.123 18.6616 173.853 18.3878 174.311 17.8402C174.78 17.2927 175.035 16.4916 175.077 15.4369C175.098 15.1484 175.109 14.7952 175.109 14.3768C175.109 14.019 175.098 13.7204 175.077 13.4816C175.035 12.4261 174.78 11.6351 174.311 11.1078C173.853 10.5704 173.123 10.3013 172.122 10.3013C171.08 10.3013 170.33 10.5704 169.872 11.1078C169.423 11.6351 169.178 12.4261 169.136 13.4816L169.105 14.4966L169.136 15.4369ZM187.631 0.537802V22.1694H182.988V0.537802H187.631ZM190.945 15.7947C190.924 15.4657 190.914 14.9632 190.914 14.2866C190.914 13.7888 190.924 13.4209 190.945 13.1821C191.05 11.0821 191.763 9.42003 193.087 8.19581C194.421 6.9817 196.218 6.37424 198.48 6.37424C200.784 6.37424 202.587 6.98635 203.889 8.21057C205.182 9.44491 205.828 11.261 205.828 13.6597C205.828 14.5152 205.818 15.2075 205.797 15.7348H195.557L195.588 16.1828C195.651 17.0982 195.932 17.7998 196.433 18.2875C196.943 18.7751 197.689 19.0194 198.668 19.0194C199.397 19.0194 199.971 18.8895 200.388 18.6305C200.815 18.3722 201.07 18.0635 201.153 17.7049H205.671C205.547 18.5014 205.213 19.2628 204.671 19.9892C204.139 20.7258 203.369 21.3379 202.357 21.8256C201.346 22.3132 200.117 22.5575 198.668 22.5575C196.281 22.5575 194.421 21.9601 193.087 20.7655C191.763 19.5817 191.05 17.9242 190.945 15.7947ZM195.557 12.6447H201.31V12.5545C201.31 11.6989 201.065 11.0324 200.575 10.5548C200.096 10.0671 199.408 9.8229 198.512 9.8229C196.657 9.8229 195.672 10.7633 195.557 12.6447Z" fill="#007AFF"/>
</g>
<defs>
<filter id="filter0_ddii_0_752" x="209.779" y="0.499958" width="29.8272" height="29.0001" filterUnits="userSpaceOnUse" color-interpolation-filters="sRGB">
<feFlood flood-opacity="0" result="BackgroundImageFix"/>
<feColorMatrix in="SourceAlpha" type="matrix" values="0 0 0 0 0 0 0 0 0 0 0 0 0 0 0 0 0 0 127 0" result="hardAlpha"/>
<feMorphology radius="0.5" operator="dilate" in="SourceAlpha" result="effect1_dropShadow_0_752"/>
<feOffset/>
<feComposite in2="hardAlpha" operator="out"/>
<feColorMatrix type="matrix" values="0 0 0 0 0 0 0 0 0 0.478431 0 0 0 0 1 0 0 0 0.12 0"/>
<feBlend mode="normal" in2="BackgroundImageFix" result="effect1_dropShadow_0_752"/>
<feColorMatrix in="SourceAlpha" type="matrix" values="0 0 0 0 0 0 0 0 0 0 0 0 0 0 0 0 0 0 127 0" result="hardAlpha"/>
<feOffset dy="1"/>
<feGaussianBlur stdDeviation="1.25"/>
<feComposite in2="hardAlpha" operator="out"/>
<feColorMatrix type="matrix" values="0 0 0 0 0 0 0 0 0 0.478431 0 0 0 0 1 0 0 0 0.24 0"/>
<feBlend mode="normal" in2="effect1_dropShadow_0_752" result="effect2_dropShadow_0_752"/>
<feBlend mode="normal" in="SourceGraphic" in2="effect2_dropShadow_0_752" result="shape"/>
<feColorMatrix in="SourceAlpha" type="matrix" values="0 0 0 0 0 0 0 0 0 0 0 0 0 0 0 0 0 0 127 0" result="hardAlpha"/>
<feOffset dy="-1"/>
<feGaussianBlur stdDeviation="1"/>
<feComposite in2="hardAlpha" operator="arithmetic" k2="-1" k3="1"/>
<feColorMatrix type="matrix" values="0 0 0 0 1 0 0 0 0 1 0 0 0 0 1 0 0 0 0.2 0"/>
<feBlend mode="normal" in2="shape" result="effect3_innerShadow_0_752"/>
<feColorMatrix in="SourceAlpha" type="matrix" values="0 0 0 0 0 0 0 0 0 0 0 0 0 0 0 0 0 0 127 0" result="hardAlpha"/>
<feOffset dy="1"/>
<feGaussianBlur stdDeviation="1"/>
<feComposite in2="hardAlpha" operator="arithmetic" k2="-1" k3="1"/>
<feColorMatrix type="matrix" values="0 0 0 0 1 0 0 0 0 1 0 0 0 0 1 0 0 0 0.2 0"/>
<feBlend mode="normal" in2="effect3_innerShadow_0_752" result="effect4_innerShadow_0_752"/>
</filter>
<clipPath id="clip0_0_752">
<rect width="240" height="28" fill="white"/>
</clipPath>
</defs>
</svg>
